# xmcd CD database file
#
# Track frame offsets:
#	150
#	19187
#	37726
#	55029
#	88251
#	101206
#	119628
#	137136
#	155412
#	183320
#	201131
#	225641
#	252760
#
# Disc length: 3534 seconds
#
# Revision: 1
# Processed by: cddbd v1.5.2PL0 Copyright (c) Steve Scherf et al.
# Submitted via: CDex 1.70beta2
#
DISCID=ac0dcc0d
DTITLE=Tonke Drag - Der Brief für den König CD 5
DYEAR=2007
DGENRE=Hörbuch
TTITLE0=Westlich vom Regenbogenfluss
TTITLE1=Westlich vom Regenbogenfluss
TTITLE2=Westlich vom Regenbogenfluss
TTITLE3=Westlich vom Regenbogenfluss
TTITLE4=Westlich vom Regenbogenfluss
TTITLE5=Westlich vom Regenbogenfluss
TTITLE6=Zurück zur Stadt König Dagonauts
TTITLE7=Zurück zur Stadt König Dagonauts
TTITLE8=Zurück zur Stadt König Dagonauts
TTITLE9=Zurück zur Stadt König Dagonauts
TTITLE10=Zurück zur Stadt König Dagonauts
TTITLE11=Zurück zur Stadt König Dagonauts
TTITLE12=Zurück zur Stadt König Dagonauts
EXTD=YEAR: 2007
EXTT0=
EXTT1=
EXTT2=
EXTT3=
EXTT4=
EXTT5=
EXTT6=
EXTT7=
EXTT8=
EXTT9=
EXTT10=
EXTT11=
EXTT12=
PLAYORDER=
